<svg xmlns="http://www.w3.org/2000/svg" viewBox="0 0 1200 760" role="img" aria-labelledby="title desc">
  <title id="title">Florida Mugshot Attorney website preview</title>
  <desc id="desc">Stylized website screenshot preview for floridamugshotattorney.com.</desc>
  <defs><linearGradient id="bg" x1="0" x2="1" y1="0" y2="1"><stop stop-color="#172554"/><stop offset="1" stop-color="#34d399"/></linearGradient></defs>
  <rect width="1200" height="760" rx="48" fill="url(#bg)"/>
  <rect x="72" y="72" width="1056" height="616" rx="30" fill="#fff"/>
  <rect x="72" y="72" width="1056" height="90" rx="30" fill="#172554"/>
  <rect x="128" y="106" width="272" height="22" rx="11" fill="#bbf7d0"/><rect x="806" y="100" width="218" height="34" rx="17" fill="#34d399"/>
  <rect x="126" y="214" width="520" height="44" rx="12" fill="#172554"/><rect x="126" y="284" width="470" height="24" rx="12" fill="#64748b"/><rect x="126" y="328" width="394" height="24" rx="12" fill="#94a3b8"/>
  <rect x="126" y="400" width="215" height="56" rx="28" fill="#16a34a"/><rect x="706" y="218" width="316" height="288" rx="28" fill="#dcfce7"/>
  <path d="M805 450h118M780 276h168M807 326h114M836 276v174" stroke="#14532d" stroke-width="22" stroke-linecap="round"/><rect x="760" y="246" width="208" height="236" rx="18" fill="none" stroke="#166534" stroke-width="18"/>
  <rect x="126" y="540" width="272" height="78" rx="18" fill="#f0fdf4"/><rect x="442" y="540" width="272" height="78" rx="18" fill="#f0fdf4"/><rect x="758" y="540" width="272" height="78" rx="18" fill="#f0fdf4"/>
</svg>
