<svg xmlns="http://www.w3.org/2000/svg" viewBox="0 0 1200 760" role="img" aria-labelledby="title desc">
  <title id="title">Florida Deposit Law website preview</title>
  <desc id="desc">Stylized website screenshot preview for floridadepositlaw.com.</desc>
  <defs><linearGradient id="bg" x1="0" x2="1" y1="0" y2="1"><stop stop-color="#082f49"/><stop offset="1" stop-color="#06b6d4"/></linearGradient></defs>
  <rect width="1200" height="760" rx="48" fill="url(#bg)"/>
  <rect x="72" y="74" width="1056" height="612" rx="30" fill="#f8fafc"/>
  <rect x="72" y="74" width="1056" height="86" rx="30" fill="#0f172a"/>
  <rect x="126" y="107" width="230" height="20" rx="10" fill="#67e8f9"/><rect x="780" y="101" width="250" height="32" rx="16" fill="#06b6d4"/>
  <rect x="126" y="215" width="530" height="38" rx="12" fill="#0f172a"/><rect x="126" y="276" width="438" height="22" rx="11" fill="#64748b"/><rect x="126" y="316" width="505" height="22" rx="11" fill="#94a3b8"/>
  <rect x="126" y="384" width="220" height="56" rx="28" fill="#06b6d4"/><rect x="372" y="384" width="180" height="56" rx="28" fill="#e2e8f0"/>
  <rect x="730" y="210" width="300" height="300" rx="30" fill="#cffafe"/><path d="M805 438h150M834 380h92M880 262v150M804 312h152" stroke="#0e7490" stroke-width="22" stroke-linecap="round"/><circle cx="880" cy="312" r="92" fill="none" stroke="#164e63" stroke-width="22"/>
  <rect x="126" y="535" width="284" height="82" rx="18" fill="#ecfeff"/><rect x="458" y="535" width="284" height="82" rx="18" fill="#ecfeff"/><rect x="790" y="535" width="240" height="82" rx="18" fill="#ecfeff"/>
</svg>
