<svg xmlns="http://www.w3.org/2000/svg" viewBox="0 0 1200 760" role="img" aria-labelledby="title desc">
  <title id="title">Hoffman Legal website preview</title>
  <desc id="desc">Stylized website screenshot preview for hoffman.legal.</desc>
  <defs><linearGradient id="bg" x1="0" x2="1" y1="0" y2="1"><stop stop-color="#0f172a"/><stop offset="1" stop-color="#7c3aed"/></linearGradient><linearGradient id="accent" x1="0" x2="1"><stop stop-color="#f8fafc"/><stop offset="1" stop-color="#c4b5fd"/></linearGradient></defs>
  <rect width="1200" height="760" rx="48" fill="url(#bg)"/>
  <rect x="72" y="70" width="1056" height="620" rx="30" fill="#ffffff"/>
  <rect x="72" y="70" width="1056" height="86" rx="30" fill="#111827"/>
  <circle cx="124" cy="113" r="12" fill="#ef4444"/><circle cx="164" cy="113" r="12" fill="#f59e0b"/><circle cx="204" cy="113" r="12" fill="#22c55e"/>
  <rect x="260" y="101" width="198" height="22" rx="11" fill="#e2e8f0" opacity=".9"/><rect x="808" y="96" width="214" height="32" rx="16" fill="#7c3aed"/>
  <rect x="126" y="215" width="420" height="42" rx="12" fill="#0f172a"/><rect x="126" y="278" width="500" height="24" rx="12" fill="#64748b"/><rect x="126" y="322" width="448" height="24" rx="12" fill="#94a3b8"/>
  <rect x="126" y="390" width="196" height="54" rx="27" fill="#7c3aed"/><rect x="346" y="390" width="172" height="54" rx="27" fill="#e2e8f0"/>
  <rect x="680" y="206" width="330" height="310" rx="24" fill="url(#accent)"/><path d="M758 448h174M790 400h110M836 268l74 74-74 74-74-74z" stroke="#111827" stroke-width="22" stroke-linecap="round" stroke-linejoin="round" fill="none" opacity=".86"/>
  <rect x="126" y="535" width="250" height="78" rx="18" fill="#f1f5f9"/><rect x="410" y="535" width="250" height="78" rx="18" fill="#f1f5f9"/><rect x="694" y="535" width="250" height="78" rx="18" fill="#f1f5f9"/>
</svg>
