<svg xmlns="http://www.w3.org/2000/svg" viewBox="0 0 1200 760" role="img" aria-labelledby="title desc">
  <title id="title">Skill Migrate website preview</title>
  <desc id="desc">Stylized website screenshot preview for skillmigrate.com.</desc>
  <defs><linearGradient id="bg" x1="0" x2="1" y1="0" y2="1"><stop stop-color="#312e81"/><stop offset="1" stop-color="#14b8a6"/></linearGradient></defs>
  <rect width="1200" height="760" rx="48" fill="url(#bg)"/>
  <rect x="72" y="70" width="1056" height="620" rx="30" fill="#f8fafc"/>
  <rect x="72" y="70" width="1056" height="86" rx="30" fill="#0d1324"/>
  <rect x="126" y="104" width="218" height="22" rx="11" fill="#99f6e4"/><rect x="806" y="98" width="220" height="34" rx="17" fill="#14b8a6"/>
  <rect x="126" y="218" width="482" height="42" rx="12" fill="#0f172a"/><rect x="126" y="282" width="510" height="24" rx="12" fill="#64748b"/><rect x="126" y="326" width="405" height="24" rx="12" fill="#94a3b8"/>
  <rect x="126" y="394" width="204" height="56" rx="28" fill="#14b8a6"/><rect x="358" y="394" width="180" height="56" rx="28" fill="#e2e8f0"/>
  <rect x="704" y="214" width="320" height="304" rx="30" fill="#ccfbf1"/><path d="M780 408c84-108 202-108 160 0M836 270c48 35 86 66 114 138M840 270c-44 42-76 88-96 138" stroke="#115e59" stroke-width="22" stroke-linecap="round" fill="none"/><circle cx="840" cy="270" r="54" fill="none" stroke="#0f766e" stroke-width="20"/>
  <rect x="126" y="538" width="210" height="78" rx="18" fill="#f0fdfa"/><rect x="376" y="538" width="210" height="78" rx="18" fill="#f0fdfa"/><rect x="626" y="538" width="210" height="78" rx="18" fill="#f0fdfa"/><rect x="876" y="538" width="150" height="78" rx="18" fill="#f0fdfa"/>
</svg>
