<svg xmlns="http://www.w3.org/2000/svg" viewBox="0 0 1040 880" width="1040" height="880" role="img" aria-labelledby="t d" preserveAspectRatio="xMidYMid meet">
<title id="t">Service business website and local search results</title><desc id="d">A tree-service website shown on desktop and mobile, with a new quote-request notification and a local search ranking card.</desc>
<defs><filter id="soft" x="-30%" y="-30%" width="160%" height="160%">
  <feDropShadow dx="0" dy="10" stdDeviation="14" flood-color="#0b1f3a" flood-opacity="0.10"/>
</filter><linearGradient id="heroWash" x1="0" y1="0" x2="1" y2="1"><stop stop-color="#0b1f3a"/><stop offset="1" stop-color="#23507f"/></linearGradient></defs>

<rect width="1040" height="880" fill="none"/>
<circle cx="120" cy="130" r="110" fill="#f3e8d3" opacity="0.55"/>
<circle cx="900" cy="720" r="150" fill="#eaf1f8" opacity="0.85"/>
<g filter="url(#soft)">
<g>
  <rect x="60" y="40" width="586" height="430" rx="18" fill="#ffffff" stroke="#dde3ec"/>
  <path d="M60 70 v-14 a18 18 0 0 1 18 -18 h550 a18 18 0 0 1 18 18 v14 Z" fill="#f7f5f1"/>
  <line x1="60" y1="70" x2="646" y2="70" stroke="#dde3ec"/>
  <circle cx="78" cy="55" r="4" fill="#dbe4ef"/>
  <circle cx="92" cy="55" r="4" fill="#dbe4ef"/>
  <circle cx="106" cy="55" r="4" fill="#dbe4ef"/>
  <rect x="122" y="48" width="222.68" height="14" rx="7" fill="#dbe4ef"/>
  <text x="130" y="59" font-family="system-ui, sans-serif" font-size="9" fill="#5b6b80">ridgelinetreecare.com</text>
  <g transform="translate(60 70)">
  <rect x="24" y="22" width="92" height="12" rx="6" fill="#0b1f3a"/>
  <rect x="300" y="24" width="40" height="8" rx="4" fill="#dbe4ef"/><rect x="352" y="24" width="40" height="8" rx="4" fill="#dbe4ef"/><rect x="404" y="24" width="40" height="8" rx="4" fill="#dbe4ef"/>
  <rect x="470" y="16" width="92" height="26" rx="13" fill="#b08948"/><text x="516" y="32.96" text-anchor="middle" font-family="system-ui, sans-serif" font-size="11" font-weight="700" fill="#ffffff">Call now</text>
  <rect x="24" y="62" width="538" height="196" rx="14" fill="#0b1f3a"/>
  <rect x="24" y="62" width="538" height="196" rx="14" fill="url(#heroWash)"/>
  <rect x="48" y="96" width="300" height="17" rx="8" fill="#ffffff"/>
  <rect x="48" y="122" width="232" height="11" rx="5.5" fill="#9fb6cf"/>
  <rect x="48" y="152" width="132" height="32" rx="16" fill="#b08948"/><text x="114" y="171.96" text-anchor="middle" font-family="system-ui, sans-serif" font-size="11" font-weight="700" fill="#0b1f3a">Get a free quote</text>
  <rect x="190" y="152" width="106" height="32" rx="16" fill="rgba(255,255,255,0.16)"/><text x="243" y="171.96" text-anchor="middle" font-family="system-ui, sans-serif" font-size="11" font-weight="700" fill="#ffffff">See our work</text>
  <g>
    <rect x="24" y="278" width="170" height="104" rx="12" fill="#f7f5f1" stroke="#dde3ec"/>
      <circle cx="50" cy="304" r="12" fill="#e2f0e9"/>
      <path d="M44 304 l4 4 8 -9" stroke="#1f7a52" stroke-width="2.4" fill="none" stroke-linecap="round" stroke-linejoin="round"/>
      <rect x="72" y="298" width="78" height="10" rx="5" fill="#23507f"/>
      <rect x="40" y="328" width="138" height="8" rx="4" fill="#dbe4ef"/>
      <rect x="40" y="344" width="112" height="8" rx="4" fill="#dbe4ef"/>
      <rect x="40" y="360" width="126" height="8" rx="4" fill="#dbe4ef"/><rect x="208" y="278" width="170" height="104" rx="12" fill="#f7f5f1" stroke="#dde3ec"/>
      <circle cx="234" cy="304" r="12" fill="#e2f0e9"/>
      <path d="M228 304 l4 4 8 -9" stroke="#1f7a52" stroke-width="2.4" fill="none" stroke-linecap="round" stroke-linejoin="round"/>
      <rect x="256" y="298" width="78" height="10" rx="5" fill="#23507f"/>
      <rect x="224" y="328" width="138" height="8" rx="4" fill="#dbe4ef"/>
      <rect x="224" y="344" width="112" height="8" rx="4" fill="#dbe4ef"/>
      <rect x="224" y="360" width="126" height="8" rx="4" fill="#dbe4ef"/><rect x="392" y="278" width="170" height="104" rx="12" fill="#f7f5f1" stroke="#dde3ec"/>
      <circle cx="418" cy="304" r="12" fill="#e2f0e9"/>
      <path d="M412 304 l4 4 8 -9" stroke="#1f7a52" stroke-width="2.4" fill="none" stroke-linecap="round" stroke-linejoin="round"/>
      <rect x="440" y="298" width="78" height="10" rx="5" fill="#23507f"/>
      <rect x="408" y="328" width="138" height="8" rx="4" fill="#dbe4ef"/>
      <rect x="408" y="344" width="112" height="8" rx="4" fill="#dbe4ef"/>
      <rect x="408" y="360" width="126" height="8" rx="4" fill="#dbe4ef"/>
  </g></g>
</g>
</g>
<g>
  <rect x="591" y="317" width="190" height="342" rx="27" fill="#0b1f3a"/>
  <rect x="596" y="322" width="180" height="332" rx="22" fill="#ffffff"/>
  <rect x="668" y="329" width="36" height="5" rx="2.5" fill="#dbe4ef"/>
  <g transform="translate(596 342)">
  <rect x="16" y="12" width="58" height="9" rx="5" fill="#0b1f3a"/>
  <rect x="120" y="6" width="44" height="22" rx="11" fill="#b08948"/><text x="142" y="20.24" text-anchor="middle" font-family="system-ui, sans-serif" font-size="9" font-weight="700" fill="#ffffff">Call</text>
  <rect x="16" y="38" width="148" height="86" rx="10" fill="#0b1f3a"/>
  <rect x="28" y="60" width="104" height="11" rx="6" fill="#ffffff"/>
  <rect x="28" y="80" width="76" height="7" rx="3.5" fill="#9fb6cf"/>
  <rect x="28" y="96" width="88" height="20" rx="10" fill="#b08948"/><text x="72" y="108.88" text-anchor="middle" font-family="system-ui, sans-serif" font-size="8" font-weight="700" fill="#0b1f3a">Free quote</text>
  <rect x="16" y="138" width="148" height="30" rx="8" fill="#f7f5f1"/>
  <rect x="28" y="148" width="60" height="8" rx="4" fill="#23507f"/><rect x="28" y="160" width="100" height="6" rx="3" fill="#dbe4ef"/>
  <rect x="16" y="178" width="148" height="30" rx="8" fill="#f7f5f1"/>
  <rect x="28" y="188" width="74" height="8" rx="4" fill="#23507f"/><rect x="28" y="200" width="92" height="6" rx="3" fill="#dbe4ef"/>
  <rect x="16" y="218" width="148" height="30" rx="8" fill="#f7f5f1"/>
  <rect x="28" y="228" width="52" height="8" rx="4" fill="#23507f"/><rect x="28" y="240" width="108" height="6" rx="3" fill="#dbe4ef"/>
  <rect x="16" y="262" width="148" height="30" rx="15" fill="#0b1f3a"/><text x="90" y="280.6" text-anchor="middle" font-family="system-ui, sans-serif" font-size="10" font-weight="700" fill="#ffffff">Request a quote</text></g>
</g>
<g transform="translate(640 44)"><g filter="url(#soft)">
  <rect x="0" y="0" width="330" height="212" rx="18" fill="#ffffff" stroke="#dde3ec"/>
  <text x="22" y="36" text-anchor="start" font-family="system-ui, -apple-system, sans-serif" font-size="14" font-weight="800" fill="#0b1f3a">Local search rankings</text>
  <rect x="248" y="20" width="62" height="22" rx="11" fill="#e2f0e9"/>
  <text x="279" y="35" text-anchor="middle" font-family="system-ui, -apple-system, sans-serif" font-size="10" font-weight="800" fill="#1f7a52">&#8593; Rising</text>
  <rect x="22" y="56" width="286" height="34" rx="10" fill="#f7f5f1"/>
      <text x="36" y="78" text-anchor="start" font-family="system-ui, -apple-system, sans-serif" font-size="11.5" font-weight="600" fill="#16345c">tree removal near me</text>
      <circle cx="288" cy="73" r="13" fill="#0b1f3a"/>
      <text x="288" y="77" text-anchor="middle" font-family="system-ui, -apple-system, sans-serif" font-size="11" font-weight="800" fill="#ffffff">#2</text><rect x="22" y="100" width="286" height="34" rx="10" fill="#f7f5f1"/>
      <text x="36" y="122" text-anchor="start" font-family="system-ui, -apple-system, sans-serif" font-size="11.5" font-weight="600" fill="#16345c">emergency tree service</text>
      <circle cx="288" cy="117" r="13" fill="#0b1f3a"/>
      <text x="288" y="121" text-anchor="middle" font-family="system-ui, -apple-system, sans-serif" font-size="11" font-weight="800" fill="#ffffff">#1</text><rect x="22" y="144" width="286" height="34" rx="10" fill="#f7f5f1"/>
      <text x="36" y="166" text-anchor="start" font-family="system-ui, -apple-system, sans-serif" font-size="11.5" font-weight="600" fill="#16345c">stump grinding Fairview</text>
      <circle cx="288" cy="161" r="13" fill="#0b1f3a"/>
      <text x="288" y="165" text-anchor="middle" font-family="system-ui, -apple-system, sans-serif" font-size="11" font-weight="800" fill="#ffffff">#4</text>
</g></g>
<g transform="translate(24 690)"><g filter="url(#soft)">
  <rect x="0" y="0" width="330" height="104" rx="18" fill="#ffffff" stroke="#dde3ec"/>
  <circle cx="42" cy="52" r="22" fill="#e2f0e9"/>
  <path d="M32 52 l7 7 13 -15" stroke="#1f7a52" stroke-width="3" fill="none" stroke-linecap="round" stroke-linejoin="round"/>
  <text x="78" y="42" text-anchor="start" font-family="system-ui, -apple-system, sans-serif" font-size="15" font-weight="800" fill="#0b1f3a">New quote request</text>
  <text x="78" y="63" text-anchor="start" font-family="system-ui, -apple-system, sans-serif" font-size="12" font-weight="500" fill="#5b6b80">Oak removal &#183; Fairview, TX</text>
  <text x="78" y="82" text-anchor="start" font-family="system-ui, -apple-system, sans-serif" font-size="11" font-weight="600" fill="#1f7a52">2 minutes ago</text>
</g></g>
</svg>
