<svg xmlns="http://www.w3.org/2000/svg" viewBox="0 0 800 560" width="800" height="560" role="img" aria-labelledby="t d" preserveAspectRatio="xMidYMid meet">
<title id="t">Newly poured concrete driveway</title><desc id="d">A freshly finished concrete driveway leading to a suburban house, with a finisher at work.</desc>
<defs><filter id="soft" x="-30%" y="-30%" width="160%" height="160%">
  <feDropShadow dx="0" dy="10" stdDeviation="14" flood-color="#0b1f3a" flood-opacity="0.10"/>
</filter><linearGradient id="sky" x1="0" y1="0" x2="0" y2="1"><stop stop-color="#f4f7fb"/><stop offset="1" stop-color="#e7eef6"/></linearGradient></defs>
<rect width="800" height="560" rx="20" fill="url(#sky)"/>
<path d="M0 369.6 h800 v190.39999999999998 a20 20 0 0 1 -20 20 h-760 a20 20 0 0 1 -20 -20 Z" fill="#e8e3d9"/>

  <g>
  <path d="M468 240.60000000000002 L605 165.60000000000002 L742 240.60000000000002 Z" fill="#16345c"/>
  <rect x="480" y="240.60000000000002" width="250" height="125" fill="#ffffff" stroke="#dde3ec"/>
  <rect x="510" y="275.6" width="50" height="42.5" rx="3" fill="#eaf1f8" stroke="#dbe4ef"/>
  <rect x="650" y="275.6" width="50" height="42.5" rx="3" fill="#eaf1f8" stroke="#dbe4ef"/>
  <rect x="585" y="300.6" width="40" height="65" rx="3" fill="#b08948"/>
</g>
  <path d="M120 540 L300 363.6 L560 363.6 L470 540 Z" fill="#d9d5cd"/>
  <path d="M120 540 L300 363.6 L560 363.6 L470 540 Z" fill="none" stroke="#ffffff" stroke-width="3"/>
  <path d="M196 540 L342 363.6 M272 540 L384 363.6 M348 540 L426 363.6 M424 540 L468 363.6" stroke="#ffffff" stroke-width="2.5" opacity="0.9"/>
  <g transform="translate(210 413.6) scale(1.05)">
  <rect x="-11" y="-34" width="22" height="34" rx="8" fill="#23507f"/>
  <rect x="-9" y="0" width="7" height="26" rx="3.5" fill="#16345c"/>
  <rect x="2" y="0" width="7" height="26" rx="3.5" fill="#16345c"/>
  <circle cx="0" cy="-44" r="9" fill="#c8a288"/>
  <path d="M-13 -47 a13 13 0 0 1 26 0 Z" fill="#b08948"/>
  <rect x="-16" y="-48" width="32" height="4" rx="2" fill="#b08948"/>
</g>
  <path d="M222 381.6 l84 -40" stroke="#8a8377" stroke-width="6" stroke-linecap="round"/>
  <rect x="296" y="335.6" width="52" height="12" rx="4" fill="#b08948"/>
  <g transform="translate(700 373.6) scale(0.8)">
  <rect x="-8" y="-74" width="16" height="76" rx="6" fill="#6b4b34"/>
  <path d="M0 -60 l-22 -18 M0 -74 l24 -20" stroke="#6b4b34" stroke-width="7" stroke-linecap="round"/>
  <circle cx="-30" cy="-78" r="32" fill="#1f7a52"/>
  <circle cx="30" cy="-80" r="30" fill="#1f7a52"/>
  <circle cx="0" cy="-104" r="40" fill="#4da37b"/>
  <circle cx="-20" cy="-70" r="26" fill="#4da37b"/>
  <circle cx="22" cy="-66" r="24" fill="#4da37b"/>
</g>
  <g transform="translate(70 96)" filter="url(#soft)">
    <rect width="196" height="66" rx="14" fill="#ffffff" stroke="#dde3ec"/>
    <text x="20" y="30" text-anchor="start" font-family="system-ui, -apple-system, sans-serif" font-size="13" font-weight="800" fill="#0b1f3a">Stamped finish</text>
    <text x="20" y="50" text-anchor="start" font-family="system-ui, -apple-system, sans-serif" font-size="11" font-weight="500" fill="#5b6b80">1,200 sq ft driveway</text>
  </g>
</svg>
