<svg xmlns="http://www.w3.org/2000/svg" viewBox="0 0 1000 750" width="1000" height="750" role="img" aria-labelledby="t d" preserveAspectRatio="xMidYMid meet">
<title id="t">Lead-generation website design</title><desc id="d">A service-business website mockup on desktop and mobile with a call button, hero quote form and service cards.</desc>
<defs><filter id="soft" x="-30%" y="-30%" width="160%" height="160%">
  <feDropShadow dx="0" dy="10" stdDeviation="14" flood-color="#0b1f3a" flood-opacity="0.10"/>
</filter></defs>
<rect width="1000" height="750" rx="20" fill="#f7f5f1"/>
<circle cx="880" cy="120" r="96" fill="#f3e8d3" opacity="0.6"/>
<g filter="url(#soft)"><g>
  <rect x="60" y="90" width="546" height="380" rx="18" fill="#ffffff" stroke="#dde3ec"/>
  <path d="M60 120 v-14 a18 18 0 0 1 18 -18 h510 a18 18 0 0 1 18 18 v14 Z" fill="#f7f5f1"/>
  <line x1="60" y1="120" x2="606" y2="120" stroke="#dde3ec"/>
  <circle cx="78" cy="105" r="4" fill="#dbe4ef"/>
  <circle cx="92" cy="105" r="4" fill="#dbe4ef"/>
  <circle cx="106" cy="105" r="4" fill="#dbe4ef"/>
  <rect x="122" y="98" width="207.48" height="14" rx="7" fill="#dbe4ef"/>
  <text x="130" y="109" font-family="system-ui, sans-serif" font-size="9" fill="#5b6b80">ridgelinetreecare.com</text>
  <g transform="translate(60 120)">
  <rect x="20" y="18" width="88" height="12" rx="6" fill="#0b1f3a"/>
  <rect x="430" y="10" width="96" height="26" rx="13" fill="#b08948"/><text x="478" y="26.96" text-anchor="middle" font-family="system-ui, sans-serif" font-size="11" font-weight="700" fill="#ffffff">Call now</text>
  <rect x="20" y="50" width="506" height="150" rx="12" fill="#0b1f3a"/>
  <rect x="42" y="80" width="268" height="16" rx="8" fill="#ffffff"/>
  <rect x="42" y="106" width="204" height="10" rx="5" fill="#9fb6cf"/>
  <rect x="42" y="132" width="140" height="30" rx="15" fill="#b08948"/><text x="112" y="150.96" text-anchor="middle" font-family="system-ui, sans-serif" font-size="11" font-weight="700" fill="#0b1f3a">Get a free quote</text>
  <rect x="332" y="70" width="176" height="110" rx="10" fill="rgba(255,255,255,0.12)"/>
  <rect x="350" y="88" width="96" height="9" rx="4.5" fill="rgba(255,255,255,0.75)"/>
  <rect x="350" y="106" width="140" height="7" rx="3.5" fill="rgba(255,255,255,0.4)"/>
  <rect x="350" y="120" width="120" height="7" rx="3.5" fill="rgba(255,255,255,0.4)"/>
  <rect x="350" y="138" width="96" height="24" rx="12" fill="#ffffff"/><text x="398" y="153.6" text-anchor="middle" font-family="system-ui, sans-serif" font-size="10" font-weight="700" fill="#0b1f3a">Send</text>
  <rect x="20" y="216" width="116" height="82" rx="10" fill="#f7f5f1" stroke="#dde3ec"/>
    <circle cx="44" cy="240" r="11" fill="#f3e8d3"/>
    <rect x="32" y="262" width="78" height="8" rx="4" fill="#23507f"/>
    <rect x="32" y="278" width="92" height="6" rx="3" fill="#dbe4ef"/><rect x="150" y="216" width="116" height="82" rx="10" fill="#f7f5f1" stroke="#dde3ec"/>
    <circle cx="174" cy="240" r="11" fill="#f3e8d3"/>
    <rect x="162" y="262" width="78" height="8" rx="4" fill="#23507f"/>
    <rect x="162" y="278" width="92" height="6" rx="3" fill="#dbe4ef"/><rect x="280" y="216" width="116" height="82" rx="10" fill="#f7f5f1" stroke="#dde3ec"/>
    <circle cx="304" cy="240" r="11" fill="#f3e8d3"/>
    <rect x="292" y="262" width="78" height="8" rx="4" fill="#23507f"/>
    <rect x="292" y="278" width="92" height="6" rx="3" fill="#dbe4ef"/><rect x="410" y="216" width="116" height="82" rx="10" fill="#f7f5f1" stroke="#dde3ec"/>
    <circle cx="434" cy="240" r="11" fill="#f3e8d3"/>
    <rect x="422" y="262" width="78" height="8" rx="4" fill="#23507f"/>
    <rect x="422" y="278" width="92" height="6" rx="3" fill="#dbe4ef"/></g>
</g></g>
<g>
  <rect x="635" y="245" width="160" height="300" rx="27" fill="#0b1f3a"/>
  <rect x="640" y="250" width="150" height="290" rx="22" fill="#ffffff"/>
  <rect x="697" y="257" width="36" height="5" rx="2.5" fill="#dbe4ef"/>
  <g transform="translate(640 270)">
  <rect x="14" y="10" width="48" height="8" rx="4" fill="#0b1f3a"/>
  <rect x="96" y="4" width="40" height="20" rx="10" fill="#b08948"/><text x="116" y="17.24" text-anchor="middle" font-family="system-ui, sans-serif" font-size="9" font-weight="700" fill="#ffffff">Call</text>
  <rect x="14" y="32" width="122" height="70" rx="9" fill="#0b1f3a"/>
  <rect x="26" y="50" width="84" height="9" rx="5" fill="#ffffff"/>
  <rect x="26" y="70" width="76" height="20" rx="10" fill="#b08948"/><text x="64" y="82.88" text-anchor="middle" font-family="system-ui, sans-serif" font-size="8" font-weight="700" fill="#0b1f3a">Free quote</text>
  <rect x="14" y="114" width="122" height="26" rx="7" fill="#f7f5f1"/><rect x="24" y="122" width="48" height="7" rx="3.5" fill="#23507f"/><rect x="24" y="133" width="84" height="5" rx="2.5" fill="#dbe4ef"/><rect x="14" y="148" width="122" height="26" rx="7" fill="#f7f5f1"/><rect x="24" y="156" width="48" height="7" rx="3.5" fill="#23507f"/><rect x="24" y="167" width="84" height="5" rx="2.5" fill="#dbe4ef"/><rect x="14" y="182" width="122" height="26" rx="7" fill="#f7f5f1"/><rect x="24" y="190" width="48" height="7" rx="3.5" fill="#23507f"/><rect x="24" y="201" width="84" height="5" rx="2.5" fill="#dbe4ef"/>
  <rect x="14" y="220" width="122" height="26" rx="13" fill="#0b1f3a"/><text x="75" y="236.24" text-anchor="middle" font-family="system-ui, sans-serif" font-size="9" font-weight="700" fill="#ffffff">Request a quote</text></g>
</g>
<g filter="url(#soft)" transform="translate(520 560)">
  <rect width="404" height="116" rx="16" fill="#ffffff" stroke="#dde3ec"/>
  <circle cx="46" cy="58" r="22" fill="#e2f0e9"/>
  <path d="M36 58 l7 7 13 -15" stroke="#1f7a52" stroke-width="3" fill="none" stroke-linecap="round" stroke-linejoin="round"/>
  <text x="82" y="48" text-anchor="start" font-family="system-ui, -apple-system, sans-serif" font-size="15" font-weight="800" fill="#0b1f3a">New quote request</text>
  <text x="82" y="70" text-anchor="start" font-family="system-ui, -apple-system, sans-serif" font-size="12" font-weight="500" fill="#5b6b80">Driveway replacement &#183; 1,200 sq ft</text>
  <text x="82" y="90" text-anchor="start" font-family="system-ui, -apple-system, sans-serif" font-size="11" font-weight="700" fill="#1f7a52">Just now</text>
</g>
</svg>
